<?xml version="1.0" encoding="UTF-8"?>
<svg width="152px" height="40px" viewBox="0 0 152 40" version="1.1" xmlns="http://www.w3.org/2000/svg" xmlns:xlink="http://www.w3.org/1999/xlink">
    <!-- Generator: sketchtool 50.2 (55047) - http://www.bohemiancoding.com/sketch -->
    <title>1D2A94C9-7D70-4FBC-912A-641602802B9C</title>
    <desc>Created with sketchtool.</desc>
    <defs></defs>
    <g id="Mobile" stroke="none" stroke-width="1" fill="none" fill-rule="evenodd">
        <g id="FA_Rentelio_Home" transform="translate(-20.000000, -85.000000)" fill="#253241">
            <g id="Logo" transform="translate(20.000000, 85.000000)">
                <path d="M29.0724133,3.5686991 C29.0724133,3.5686991 28.883862,3.51310094 28.5478559,3.41882469 L17.0027881,0.392378993 C15.9754068,0.167570475 15.1487119,0.0201156911 14.6942433,0.000777257381 C12.3470215,-0.100747973 3.22175612,9.77395754 1.38692553,11.8142397 C-0.447781297,13.8520464 -0.0392916935,14.057498 0.265296373,14.3644995 C0.325728824,14.4249325 0.835777074,14.7536878 1.6165733,15.2444137 C1.60206978,15.3459389 1.59723486,15.4523034 1.61415615,15.5586617 L3.70512043,29.8016502 C3.74863221,30.0989794 3.90817089,30.3648844 4.15473746,30.5413375 L16.9348121,39.7872748 C17.0435913,39.857377 17.1354504,39.9033066 17.2321426,39.9371504 C17.3723484,39.9782444 17.4762932,40 17.5850711,40 C17.7228561,39.9903314 17.7373596,39.9854965 17.7542809,39.9830793 C17.9041541,39.9492368 17.9379991,39.9419847 17.9694233,39.9274812 C17.9807041,39.9226465 23.6153825,37.5608952 34.8734582,32.8422275 C35.2433081,32.68752 35.5043553,32.3418478 35.547859,31.9430058 L37.4502659,15.3577462 C37.7717647,15.6405694 38.0449224,15.9113074 38.2480038,16.1143393 C40.0827106,17.9442193 41.8183428,16.1119222 40.8998136,15.0894333 C39.9815177,14.0693758 29.0724133,3.5686991 29.0724133,3.5686991 Z M5.83720781,29.0106519 L4.03628909,16.7429684 C7.58490715,18.9306558 12.5136396,21.9256686 13.6739456,22.6363329 C14.1525734,22.928829 14.5731673,23.1004553 14.9454554,23.1898948 C14.8632686,23.3663603 14.8245917,23.5645777 14.8463436,23.7724674 L16.2121011,36.5166499 L5.83720781,29.0106519 Z M26.4617557,26.158465 C26.986313,25.1093627 27.4262639,24.9474149 27.9000401,24.8410381 C28.0039849,24.8216996 28.0910048,24.8144476 28.1659451,24.8144476 C28.3424106,24.8265339 28.3569098,24.8313689 28.4560216,24.9135594 C28.6083094,25.0320096 28.9273967,25.5976758 29.1231821,26.8546431 C29.3286522,28.0995431 29.4471024,29.9850559 29.4471024,32.6996769 L25.5552194,34.3313457 C25.5455502,33.765698 25.5407159,33.156559 25.5407159,32.4917501 C25.5383334,29.1677728 25.958944,27.2073198 26.4617557,26.158465 Z M35.2365777,15.1210153 L33.4091112,31.0367009 L31.2214238,31.9528786 C31.1924162,28.6967814 30.9941957,26.6662149 30.6025939,25.3146905 C30.3874515,24.5894837 30.1094608,24.0287001 29.6743491,23.6153217 C29.2416509,23.1947093 28.6518565,23.0206634 28.1611244,23.0303357 C27.9653204,23.0303357 27.7719361,23.0520912 27.5809714,23.0859332 C26.6188766,23.2309745 25.511728,23.9392377 24.8493944,25.3944781 C24.1676914,26.847305 23.7616153,29.0252767 23.7567884,32.4918379 C23.7567884,33.4491059 23.7664576,34.3072373 23.785796,35.0735343 L18.5305689,37.2781158 L17.0584345,23.538236 C17.0294269,23.2674979 16.9013074,23.0330171 16.7200089,22.8589464 C16.8046153,22.7864257 16.8771359,22.7114916 16.9351512,22.6389709 C17.3291726,22.1458378 28.4948934,8.30687094 29.2343951,7.3928592 L31.3447288,9.3557257 C32.5219288,10.5015511 34.0206729,11.9615564 35.3574692,13.2693296 L35.2365777,15.1210153 Z" id="Shape" fill-rule="nonzero"></path>
                <path d="M63.3311607,29.6011532 L59.8465781,24.0859865 C59.4454731,24.1194119 59.1195801,24.1361243 58.8688894,24.1361243 L54.4066182,24.1361243 L54.4066182,29.6011532 L52,29.6011532 L52,12.0528955 L58.8688894,12.0528955 C61.0916799,12.0528955 62.8088851,12.5668036 64.0205565,13.5946352 C65.232228,14.6224669 65.8380547,16.080629 65.8380547,17.9691652 C65.8380547,19.3897456 65.5079836,20.5846864 64.8478315,21.5540236 C64.1876795,22.5233607 63.2392474,23.225284 62.0025069,23.6598145 L66.088744,29.6011532 L63.3311607,29.6011532 Z M58.8688894,21.9551266 C60.3730333,21.9551266 61.526193,21.6250555 62.3284031,20.9649035 C63.1306132,20.3047514 63.5317122,19.3312507 63.5317122,18.044372 C63.5317122,16.7909188 63.1306132,15.8424867 62.3284031,15.1990474 C61.526193,14.555608 60.3730333,14.2338932 58.8688894,14.2338932 L54.4066182,14.2338932 L54.4066182,21.9551266 L58.8688894,21.9551266 Z M75.2138381,16.2644773 C77.2695014,16.2644773 78.8237601,16.870304 79.8766608,18.0819754 C80.9295615,19.2936469 81.456004,20.9774272 81.456004,23.1333668 C81.456004,23.467621 81.4476478,23.7183078 81.4309351,23.8854349 L70.9521183,23.8854349 C71.1359581,25.0720374 71.6331538,26.0162913 72.4437202,26.7182251 C73.2542867,27.4201589 74.2528561,27.7711206 75.4394585,27.7711206 C76.2249559,27.7711206 76.956126,27.6290647 77.6329907,27.3449486 C78.3098555,27.0608325 78.8989697,26.6597335 79.400351,26.1416395 L80.6788669,27.4702933 C80.0270712,28.1722271 79.2415856,28.7153821 78.3223866,29.0997744 C77.4031875,29.4841667 76.3837275,29.67636 75.2639759,29.67636 C73.9603846,29.67636 72.8030468,29.3964263 71.7919278,28.8365505 C70.7808088,28.2766747 69.9953233,27.487011 69.4354475,26.4675357 C68.8755717,25.4480604 68.595638,24.2865445 68.595638,22.9829531 C68.595638,21.6793617 68.8755717,20.5220239 69.4354475,19.510905 C69.9953233,18.499786 70.7766307,17.7059442 71.7793933,17.1293557 C72.7821559,16.5527672 73.9269594,16.2644773 75.2138381,16.2644773 Z M79.3502131,22.0804713 C79.2833622,20.8771562 78.8822632,19.9287241 78.146904,19.2351467 C77.4115447,18.5415692 76.4422221,18.1947857 75.238907,18.1947857 C74.0690173,18.1947857 73.0955165,18.5457473 72.3183755,19.2476811 C71.5412345,19.9496149 71.0774638,20.8938689 70.9270494,22.0804713 L79.3502131,22.0804713 Z M92.0100276,16.2644773 C93.5643096,16.2644773 94.7843191,16.7198918 95.6700928,17.6307345 C96.5558664,18.5415772 96.9987466,19.7991898 96.9987466,21.4036099 L96.9987466,29.6011532 L94.6673352,29.6011532 L94.6673352,22.0303334 C94.6673352,20.9105819 94.3539766,20.0373559 93.7272499,19.4106292 C93.1005233,18.7839026 92.2356535,18.470544 91.1326147,18.470544 C89.9460123,18.4872567 88.9808678,18.8674652 88.2371522,19.6111807 C87.4934366,20.3548963 87.071447,21.3200409 86.9711707,22.5066433 L86.9711707,29.6011532 L84.6397593,29.6011532 L84.6397593,16.3396841 L86.9711707,16.3396841 L86.9711707,19.1474054 C87.8569443,17.2588691 89.5365465,16.2979027 92.0100276,16.2644773 Z M108.279769,28.7237403 C107.260294,29.375536 106.224122,29.7014289 105.171221,29.7014289 C104.11832,29.7014289 103.265985,29.3880703 102.614189,28.7613437 C101.962393,28.1346171 101.6365,27.186185 101.6365,25.9160191 L101.6365,18.5708198 L99.7563299,18.5708198 L99.7563299,16.790925 L101.6365,16.790925 L101.6365,13.2311356 L103.992981,13.2311356 L103.992981,16.790925 L108.054149,16.790925 L108.054149,18.5708198 L103.992981,18.5708198 L103.992981,25.4898471 C103.992981,26.2252063 104.12668,26.7516488 104.394084,27.0691903 C104.661487,27.3867318 105.062586,27.5455001 105.597393,27.5455001 C106.232476,27.5455001 106.917687,27.3365944 107.653046,26.9187766 L108.279769,28.7237403 Z M116.251692,16.2644773 C118.307355,16.2644773 119.861614,16.870304 120.914515,18.0819754 C121.967416,19.2936469 122.493858,20.9774272 122.493858,23.1333668 C122.493858,23.467621 122.485502,23.7183078 122.468789,23.8854349 L111.989972,23.8854349 C112.173812,25.0720374 112.671008,26.0162913 113.481574,26.7182251 C114.292141,27.4201589 115.29071,27.7711206 116.477313,27.7711206 C117.26281,27.7711206 117.99398,27.6290647 118.670845,27.3449486 C119.34771,27.0608325 119.936824,26.6597335 120.438205,26.1416395 L121.716721,27.4702933 C121.064925,28.1722271 120.27944,28.7153821 119.360241,29.0997744 C118.441042,29.4841667 117.421582,29.67636 116.30183,29.67636 C114.998239,29.67636 113.840901,29.3964263 112.829782,28.8365505 C111.818663,28.2766747 111.033177,27.487011 110.473302,26.4675357 C109.913426,25.4480604 109.633492,24.2865445 109.633492,22.9829531 C109.633492,21.6793617 109.913426,20.5220239 110.473302,19.510905 C111.033177,18.499786 111.814485,17.7059442 112.817247,17.1293557 C113.82001,16.5527672 114.964813,16.2644773 116.251692,16.2644773 Z M120.388067,22.0804713 C120.321216,20.8771562 119.920117,19.9287241 119.184758,19.2351467 C118.449399,18.5415692 117.480076,18.1947857 116.276761,18.1947857 C115.106871,18.1947857 114.133371,18.5457473 113.35623,19.2476811 C112.579089,19.9496149 112.115318,20.8938689 111.964903,22.0804713 L120.388067,22.0804713 Z M125.802958,11 L128.13437,11 L128.13437,29.6011532 L125.802958,29.6011532 L125.802958,11 Z M132.822261,16.3396841 L135.153673,16.3396841 L135.153673,29.6011532 L132.822261,29.6011532 L132.822261,16.3396841 Z M133.975432,11.0501379 C134.39325,11.0501379 134.740034,11.1921938 135.015793,11.4763099 C135.291553,11.7604259 135.429431,12.1197438 135.429431,12.5542743 C135.429431,12.9888047 135.291553,13.3481226 135.015793,13.6322387 C134.740034,13.9163547 134.39325,14.0584106 133.975432,14.0584106 C133.557615,14.0584106 133.210831,13.9163547 132.935071,13.6322387 C132.659312,13.3481226 132.521434,12.9888047 132.521434,12.5542743 C132.521434,12.1197438 132.659312,11.7604259 132.935071,11.4763099 C133.210831,11.1921938 133.557615,11.0501379 133.975432,11.0501379 Z M145.206317,16.2644773 C146.526621,16.2644773 147.700672,16.5485891 148.728503,17.1168213 C149.756335,17.6850534 150.558533,18.4747171 151.135122,19.485836 C151.71171,20.496955 152,21.6542928 152,22.9578842 C152,24.2614756 151.71171,25.4229915 151.135122,26.4424668 C150.558533,27.4619421 149.756335,28.2557839 148.728503,28.824016 C147.700672,29.3922482 146.526621,29.67636 145.206317,29.67636 C143.869301,29.67636 142.686894,29.3922482 141.659062,28.824016 C140.631231,28.2557839 139.829033,27.4661202 139.252444,26.4550013 C138.675856,25.4438823 138.387566,24.2781883 138.387566,22.9578842 C138.387566,21.6542928 138.675856,20.496955 139.252444,19.485836 C139.829033,18.4747171 140.631231,17.6850534 141.659062,17.1168213 C142.686894,16.5485891 143.869301,16.2644773 145.206317,16.2644773 Z M145.206317,18.2950614 C144.337256,18.2950614 143.564305,18.4956109 142.88744,18.896716 C142.210576,19.297821 141.684133,19.8535103 141.308097,20.5638005 C140.932061,21.2740906 140.744046,22.0804668 140.744046,22.9829531 C140.744046,23.9021522 140.932061,24.7210627 141.308097,25.4397092 C141.684133,26.1583557 142.210576,26.714045 142.88744,27.1067937 C143.564305,27.4995424 144.337256,27.6959138 145.206317,27.6959138 C146.058666,27.6959138 146.823261,27.4995424 147.500125,27.1067937 C148.17699,26.714045 148.703433,26.1583557 149.079469,25.4397092 C149.455505,24.7210627 149.64352,23.9021522 149.64352,22.9829531 C149.64352,22.0804668 149.455505,21.2740906 149.079469,20.5638005 C148.703433,19.8535103 148.17699,19.297821 147.500125,18.896716 C146.823261,18.4956109 146.058666,18.2950614 145.206317,18.2950614 Z" id="Rentelio"></path>
            </g>
        </g>
    </g>
</svg>